<svg width="174" height="174" viewBox="0 0 174 174" fill="none" xmlns="http://www.w3.org/2000/svg">
<path d="M74.2618 118.276L43.5 87.5075L53.7515 77.256L74.2618 97.759L115.268 56.7457L125.526 67.0045L74.2618 118.276Z" fill="#4C4C4C"/>
<path fill-rule="evenodd" clip-rule="evenodd" d="M7.25 87C7.25 42.9563 42.9563 7.25 87 7.25C131.044 7.25 166.75 42.9563 166.75 87C166.75 131.044 131.044 166.75 87 166.75C42.9563 166.75 7.25 131.044 7.25 87ZM87 152.25C78.4312 152.25 69.9464 150.562 62.0299 147.283C54.1134 144.004 46.9203 139.198 40.8613 133.139C34.8023 127.08 29.996 119.887 26.7169 111.97C23.4377 104.054 21.75 95.5688 21.75 87C21.75 78.4312 23.4377 69.9464 26.7169 62.0299C29.996 54.1134 34.8023 46.9203 40.8613 40.8613C46.9203 34.8023 54.1134 29.996 62.0299 26.7169C69.9464 23.4377 78.4312 21.75 87 21.75C104.305 21.75 120.902 28.6245 133.139 40.8613C145.375 53.098 152.25 69.6946 152.25 87C152.25 104.305 145.375 120.902 133.139 133.139C120.902 145.375 104.305 152.25 87 152.25Z" fill="#4C4C4C"/>
</svg>
