<svg width="234" height="167" viewBox="0 0 234 167" fill="none" xmlns="http://www.w3.org/2000/svg">
<path opacity="0.2" d="M213.354 18.5227H48.186C36.7835 18.5227 27.54 26.8156 27.54 37.0453V148.181C27.54 158.411 36.7835 166.704 48.186 166.704H213.354C224.756 166.704 234 158.411 234 148.181V37.0453C234 26.8156 224.756 18.5227 213.354 18.5227Z" fill="black"/>
<path fill-rule="evenodd" clip-rule="evenodd" d="M199.59 0H6.89399C5.06877 0 3.31831 0.650498 2.02769 1.80839C0.73706 2.96628 0.0119934 4.53672 0.0119934 6.17422V142.007C0.0119934 143.645 0.73706 145.215 2.02769 146.373C3.31831 147.531 5.06877 148.181 6.89399 148.181H199.59C201.415 148.181 203.166 147.531 204.456 146.373C205.747 145.215 206.472 143.645 206.472 142.007V6.17422C206.472 4.53672 205.747 2.96628 204.456 1.80839C203.166 0.650498 201.415 0 199.59 0ZM13.776 135.833V12.3484H192.708V135.833H13.776Z" fill="black"/>
<path fill-rule="evenodd" clip-rule="evenodd" d="M204.05 10.8666L107.082 84.9573C105.834 85.9122 104.247 86.4356 102.606 86.4333C100.966 86.4311 99.3805 85.9032 98.1356 84.9449L2.3932 10.8543C1.32741 10.0315 0.568096 8.93558 0.217445 7.71399C-0.133207 6.4924 -0.0583734 5.20375 0.431874 4.02147C0.922121 2.83918 1.80426 1.81998 2.95958 1.10101C4.1149 0.38204 5.48797 -0.0021946 6.89403 9.42916e-06H199.59C200.996 0.00243196 202.367 0.390989 203.519 1.11342C204.671 1.83585 205.549 2.85751 206.035 4.04098C206.521 5.22445 206.591 6.51297 206.236 7.73324C205.881 8.95351 205.118 10.047 204.05 10.8666ZM180.899 12.3485H25.4066L102.65 72.1273L180.899 12.3485Z" fill="black"/>
</svg>
