<svg width="111" height="111" viewBox="0 0 111 111" fill="none" xmlns="http://www.w3.org/2000/svg">
<path d="M97.125 25.6688V20.8125H86.7188L55.5 0L23.5875 20.8125H13.875V25.6688L0 34.6875V111H111V35.3812L97.125 25.6688ZM55.5 8.325L74.2312 20.8125H36.075L55.5 8.325ZM20.8125 27.75H90.1875V53.4187L65.9062 65.2125L55.5 56.1938L45.0938 65.9062L20.8125 54.1125V27.75ZM6.9375 38.1562L13.875 33.3V49.95L6.9375 47.175V38.1562ZM6.9375 54.8063L38.85 70.7625L6.9375 98.5125V54.8063ZM13.1812 104.062L55.5 67.2937L97.8188 104.062H13.1812ZM104.062 98.5125L71.4563 70.0688L104.062 54.1125V98.5125ZM104.062 46.4812L97.125 49.95V33.9938L104.062 38.85V46.4812Z" fill="#3D3D3D"/>
</svg>
