<svg width="130" height="130" viewBox="0 0 130 130" fill="none" xmlns="http://www.w3.org/2000/svg">
<path d="M89.375 110.419L78.8531 99.8969L73.125 105.625L89.375 121.875L121.875 89.375L116.147 83.6469L89.375 110.419ZM36.5625 69.0625H65V77.1875H36.5625V69.0625ZM36.5625 48.75H85.3125V56.875H36.5625V48.75ZM36.5625 28.4375H85.3125V36.5625H36.5625V28.4375Z" fill="#3D3D3D"/>
<path d="M65 121.875H24.375C19.8941 121.875 16.25 118.231 16.25 113.75V16.25C16.25 11.7691 19.8941 8.125 24.375 8.125H97.5C101.981 8.125 105.625 11.7691 105.625 16.25V77.1875H97.5V16.25H24.375V113.75H65V121.875Z" fill="#3D3D3D"/>
</svg>
