<svg width="52" height="52" viewBox="0 0 52 52" fill="none" xmlns="http://www.w3.org/2000/svg">
<path d="M45.5 12.025V9.75H40.625L26 0L11.05 9.75H6.5V12.025L0 16.25V52H52V16.575L45.5 12.025ZM26 3.9L34.775 9.75H16.9L26 3.9ZM9.75 13H42.25V25.025L30.875 30.55L26 26.325L21.125 30.875L9.75 25.35V13ZM3.25 17.875L6.5 15.6V23.4L3.25 22.1V17.875ZM3.25 25.675L18.2 33.15L3.25 46.15V25.675ZM6.175 48.75L26 31.525L45.825 48.75H6.175ZM48.75 46.15L33.475 32.825L48.75 25.35V46.15ZM48.75 21.775L45.5 23.4V15.925L48.75 18.2V21.775Z" fill="white"/>
</svg>
