<svg width="206" height="186" viewBox="0 0 206 186" fill="none" xmlns="http://www.w3.org/2000/svg">
<path d="M82.4 0C71.4731 0 60.9937 4.35475 53.2672 12.1063C45.5407 19.8578 41.2 30.371 41.2 41.3333C41.2 52.2956 45.5407 62.8089 53.2672 70.5604C60.9937 78.3119 71.4731 82.6667 82.4 82.6667C93.3269 82.6667 103.806 78.3119 111.533 70.5604C119.259 62.8089 123.6 52.2956 123.6 41.3333C123.6 30.371 119.259 19.8578 111.533 12.1063C103.806 4.35475 93.3269 0 82.4 0ZM82.4 20.6667C87.8635 20.6667 93.1031 22.844 96.9664 26.7198C100.83 30.5955 103 35.8522 103 41.3333C103 46.8145 100.83 52.0711 96.9664 55.9469C93.1031 59.8226 87.8635 62 82.4 62C76.9365 62 71.6969 59.8226 67.8336 55.9469C63.9704 52.0711 61.8 46.8145 61.8 41.3333C61.8 35.8522 63.9704 30.5955 67.8336 26.7198C71.6969 22.844 76.9365 20.6667 82.4 20.6667ZM82.4 93C54.899 93 0 106.743 0 134.333V165.333H97.85C95.2578 159.072 93.6256 152.452 93.009 145.7H19.57V134.333C19.57 127.72 51.809 112.633 82.4 112.633C87.55 112.633 92.7 113.15 97.85 113.977C100.493 107.452 104.143 101.384 108.665 95.9967C98.983 94.0333 89.713 93 82.4 93ZM159.65 93C133.9 93 113.3 113.667 113.3 139.5C113.3 165.333 133.9 186 159.65 186C185.4 186 206 165.333 206 139.5C206 113.667 185.4 93 159.65 93ZM159.65 108.5C176.748 108.5 190.55 122.347 190.55 139.5C190.55 145.287 189.005 150.66 186.224 155L144.2 112.84C148.526 110.05 153.882 108.5 159.65 108.5ZM133.076 124L175.1 166.16C170.774 168.95 165.418 170.5 159.65 170.5C142.552 170.5 128.75 156.653 128.75 139.5C128.75 133.713 130.295 128.34 133.076 124Z" fill="#4C4C4C"/>
</svg>
