<svg width="53" height="53" viewBox="0 0 53 53" fill="none" xmlns="http://www.w3.org/2000/svg">
<path d="M46.5958 27.6042L49.6875 30.7179L35.2671 45.2708L27.6042 37.5417L30.6958 34.4279L35.2671 39.0212L46.5958 27.6042ZM24.2917 8.83333C26.6344 8.83333 28.8812 9.76398 30.5378 11.4206C32.1943 13.0771 33.125 15.3239 33.125 17.6667C33.125 20.0094 32.1943 22.2562 30.5378 23.9128C28.8812 25.5693 26.6344 26.5 24.2917 26.5C21.9489 26.5 19.7021 25.5693 18.0456 23.9128C16.389 22.2562 15.4583 20.0094 15.4583 17.6667C15.4583 15.3239 16.389 13.0771 18.0456 11.4206C19.7021 9.76398 21.9489 8.83333 24.2917 8.83333ZM24.2917 13.25C23.1203 13.25 21.9969 13.7153 21.1686 14.5436C20.3403 15.3719 19.875 16.4953 19.875 17.6667C19.875 18.838 20.3403 19.9614 21.1686 20.7897C21.9969 21.618 23.1203 22.0833 24.2917 22.0833C25.463 22.0833 26.5864 21.618 27.4147 20.7897C28.243 19.9614 28.7083 18.838 28.7083 17.6667C28.7083 16.4953 28.243 15.3719 27.4147 14.5436C26.5864 13.7153 25.463 13.25 24.2917 13.25ZM24.2917 28.7083C25.7933 28.7083 27.6042 28.9071 29.6137 29.2825L25.9258 32.9704L24.2917 32.9042C17.7329 32.9042 10.8208 36.1283 10.8208 37.5417V39.9708H24.5125L28.7083 44.1667H6.625V37.5417C6.625 31.6675 18.3954 28.7083 24.2917 28.7083Z" fill="white"/>
</svg>
