<svg width="52" height="52" viewBox="0 0 52 52" fill="none" xmlns="http://www.w3.org/2000/svg">
<path d="M16.7267 35.6546L20.5422 34.554L43.5153 11.3056C43.6965 11.1199 43.7974 10.8704 43.7962 10.611C43.795 10.3515 43.6918 10.1029 43.5088 9.91895L42.133 8.52795C42.0441 8.4366 41.9379 8.36387 41.8206 8.31401C41.7032 8.26415 41.5772 8.23816 41.4497 8.23755C41.3222 8.23695 41.1959 8.26174 41.0781 8.31049C40.9603 8.35923 40.8534 8.43095 40.7637 8.52145L17.8512 31.7091L16.7267 35.6546ZM44.8565 5.77195L46.2323 7.16512C48.1303 9.08695 48.1477 12.1875 46.267 14.0898L22.594 38.0488L14.4387 40.3975C14.1921 40.4668 13.9343 40.4868 13.68 40.4565C13.4257 40.4262 13.1799 40.346 12.9566 40.2207C12.7332 40.0953 12.5368 39.9272 12.3784 39.7259C12.2201 39.5247 12.1029 39.2942 12.0337 39.0476C11.9274 38.6901 11.9259 38.3096 12.0293 37.9513L14.4018 29.6313L38.012 5.73512C38.4609 5.28306 38.9954 4.92492 39.5842 4.68158C40.173 4.43824 40.8044 4.31458 41.4415 4.31781C42.0786 4.32104 42.7087 4.45109 43.295 4.70038C43.8813 4.94967 44.4121 5.31537 44.8565 5.77195ZM19.8987 8.27012C20.9733 8.27012 21.8443 9.15195 21.8443 10.2396C21.846 10.4967 21.7971 10.7517 21.7002 10.9898C21.6033 11.228 21.4604 11.4447 21.2797 11.6277C21.099 11.8106 20.884 11.9561 20.6471 12.0558C20.4101 12.1556 20.1558 12.2077 19.8987 12.2091H12.116C9.96666 12.2091 8.22466 13.9728 8.22466 16.146V39.7756C8.22466 41.951 9.96666 43.7146 12.116 43.7146H35.464C37.6133 43.7146 39.3575 41.951 39.3575 39.7756V31.8998C39.3575 30.8121 40.2285 29.9303 41.3032 29.9303C42.3778 29.9303 43.2488 30.8121 43.2488 31.902V39.7756C43.2488 44.1263 39.7627 47.6536 35.464 47.6536H12.116C7.81733 47.6536 4.33333 44.1263 4.33333 39.7756V16.146C4.33333 11.7975 7.81733 8.27012 12.116 8.27012H19.8987Z" fill="white"/>
</svg>
